PathFileType	4	(X/Y/Z)	13_2_57_p0_0-294.trc
DataRate	CameraRate	NumFrames	NumMarkers	Units	OrigDataRate	OrigDataStartFrame	OrigNumFrames
60.0	60.0	5	27	m	60.0	147	295
Frame#	Time	RHip			RKnee			RAnkle			RBigToe			RSmallToe			RHeel			LHip			LKnee			LAnkle			LBigToe			LSmallToe			LHeel			Neck			Head			Nose			RShoulder			RElbow			RWrist			RThumb			RIndex			RPinky			LShoulder			LElbow			LWrist			LThumb			LIndex			LPinky			
		X1	Y1	Z1	X2	Y2	Z2	X3	Y3	Z3	X4	Y4	Z4	X5	Y5	Z5	X6	Y6	Z6	X7	Y7	Z7	X8	Y8	Z8	X9	Y9	Z9	X10	Y10	Z10	X11	Y11	Z11	X12	Y12	Z12	X13	Y13	Z13	X14	Y14	Z14	X15	Y15	Z15	X16	Y16	Z16	X17	Y17	Z17	X18	Y18	Z18	X19	Y19	Z19	X20	Y20	Z20	X21	Y21	Z21	X22	Y22	Z22	X23	Y23	Z23	X24	Y24	Z24	X25	Y25	Z25	X26	Y26	Z26	X27	Y27	Z27	
147	2.45	0.2708506529782436	0.9421798054020714	0.6243653420196434	0.24852408995946432	0.9896879038551695	1.0241099852159188	0.24709328430006744	1.3018790581247823	1.3907868936465015	0.2569522204830346	1.083250509761658	1.4410632536287786	0.30164996138293565	1.1416603241685583	1.450161217566793	0.2383973715761106	1.3956581714460887	1.4406378946049416	0.0643671493083537	0.9467568160615805	0.6305648677854767	0.07150903220619574	1.046386373892135	1.0290685078055468	0.08790832799794318	1.2555231166231648	1.3993210294309326	0.10998400899189595	1.0844222393166645	1.452506969949521	0.046519901947235695	1.1024553828578396	1.435077973421564	0.10775696797935046	1.3616713996516596	1.4359709799553313	0.14716178021358456	0.6704921639095032	0.2503683277902621	0.17034258338829886	0.3525396999884243	0.11090093661876341	0.16421409948339782	0.4415310598200742	0.25535239941476734	0.3004593674412258	0.6572053631730217	0.2663629175145793	0.3333201493113266	0.5769430296489895	0.522718408489708	0.2636599704443144	0.4475027661269832	0.38975549306614504	0.19251064715235303	0.44868454955905923	0.3137994487365974	0.1827992432000449	0.36905183921411266	0.32904221154916896	0.21196698381613246	0.3211512065660657	0.36806055615026	0.03435397664826564	0.7127383581193769	0.2686675605117342	-0.0029873328724665422	0.6757571448066154	0.5121570625092633	0.06850333580110067	0.49766848619981996	0.37400291935025315	0.09324990247372474	0.4561191075133151	0.3147735642077363	0.10012694304416261	0.42555641133573785	0.3024529417175498	0.0995346544358236	0.39797877563162876	0.3353888201511676
148	2.466666666666667	0.27119106339899357	0.9405840801460769	0.6203545119579762	0.24849215678272535	0.9898483247533358	1.0243055150889862	0.25101037740785365	1.3192369831064588	1.3979114068476677	0.25679233296166076	1.0829878539990612	1.4412545808980026	0.3015300090123118	1.1418608803183987	1.4503632316670638	0.2420457307486847	1.413146625812367	1.4437291860784518	0.06504234805161137	0.9450727551163702	0.6264569270055712	0.07138153640849904	1.046496380862449	1.029451058532908	0.08807386017722484	1.2559286678712207	1.3992789878982546	0.10597779146936685	1.0805417824688788	1.4484754189096076	0.046467776136227455	1.102000538468923	1.4347805998921905	0.10815680425703766	1.363025433021505	1.4361534578094752	0.1582122428726427	0.6857636835902686	0.24607732121024786	0.16288210833927183	0.36069394991277465	0.10543139149274097	0.1601298612591968	0.4546816532832736	0.2525566080841668	0.30457020727749345	0.6575660140236321	0.2657696055990463	0.33682097481089196	0.5643869106745414	0.5238045249000534	0.26400265542936047	0.4336493698818067	0.3844342950552104	0.18578006203518008	0.43558939518773043	0.3121724075044848	0.17648893789058287	0.3550044929376044	0.31885190694195376	0.20722459366100765	0.3169205125040179	0.3652548627262993	0.03437855202688048	0.7118248774640453	0.2649657802250569	-0.0034150013406052068	0.6728958453842437	0.5087691825653736	0.06825946404168076	0.4969336174880219	0.37346143941591703	0.0967167015237483	0.452718335686236	0.3067774128807758	0.09946598939361932	0.4227339661414699	0.2954997698052713	0.09110574078541152	0.3951222905103732	0.32522863222849935
149	2.4833333333333334	0.2709166117110701	0.9405611184825704	0.6166819385329361	0.24800769097669273	0.9892206908694596	1.0202163186397737	0.24803891718513701	1.299838052776051	1.3864132827161801	0.25385552275127704	1.0697597823459166	1.4386749083301027	0.29694964426984694	1.123869252380311	1.4436032124089402	0.2478512704901568	1.4201368450854008	1.449082303585927	0.06918733920930718	0.9471414394421681	0.6223065058390691	0.07411551204969041	1.062077735272157	1.0299355730000586	0.08807826516625951	1.2556625521797755	1.3992903114730655	0.10257567241688628	1.0663921381912072	1.4497335552630395	0.046298813620046515	1.1021995315374447	1.4351086501704282	0.10854312079943207	1.3627392070834248	1.435584231799925	0.15105344351936525	0.6723933845229229	0.2492890337958298	0.16670745905004464	0.3495616042600878	0.10823042812369105	0.16025497812329795	0.45449911495047607	0.2524512380617866	0.304633545972123	0.6571001902095956	0.26498561431710926	0.33625252835216984	0.5617136333715385	0.5206701075369788	0.2608569237537574	0.4214913702431876	0.3836165292024504	0.18942513795578114	0.4448782479355842	0.30588397800560774	0.1828966993666545	0.3650026202397778	0.3073410647006574	0.20601218892557105	0.32609857784616375	0.35391239233024097	0.03400748325212604	0.7079914266799057	0.25843453355564083	-0.0033116087208665715	0.6722165897908927	0.5086253167917721	0.07282921635297465	0.483745233623469	0.37167973923351216	0.09076309724742168	0.44121798570723064	0.30723850233012373	0.09583038899550451	0.4207255652326633	0.2930021164496691	0.08532084386492865	0.38171128980615865	0.3224693930828602
150	2.5	0.27073219318096475	0.9424700447087543	0.6241610009733011	0.2490769957613081	0.987664253568673	1.020248342998481	0.2480453742743991	1.2999229618914718	1.3863837581906655	0.2530175693088215	1.072373145652089	1.4430348165302909	0.2920973205370076	1.1207870942222224	1.4431452347132043	0.24418527592603903	1.4030568346619599	1.4462184830173572	0.06915312450519807	0.9469738055532138	0.626067829513009	0.07497428739711416	1.0602414291203244	1.0260428182252062	0.09242614146611515	1.2591452088929875	1.3997709594336925	0.10177028895156755	1.062631097352563	1.445166975763212	0.04639455539716943	1.1027355759648398	1.4353009920082371	0.10883791550061903	1.3654515028933876	1.4364650589740233	0.15765869424722076	0.6711918593983117	0.24855775806509733	0.16613209720068103	0.36107609610737945	0.10092968599075602	0.1564484681170671	0.4677012787170073	0.2534670093827758	0.3048113640056366	0.656526465524236	0.2652861167302748	0.3363493057801591	0.5617676813709646	0.5205965445521467	0.26303391438380924	0.422320292131428	0.3894088079952385	0.18574887505495807	0.43343784676139613	0.3058045620456372	0.17966272875309539	0.3519534791815506	0.299476018218579	0.2078795103794403	0.3238282104142822	0.34256143143425916	0.033603426310950014	0.7048639658887471	0.25542218808866285	0.0017000265865135076	0.6554189963016498	0.5031944592464075	0.07314760453811953	0.48203627552906103	0.3687127044097986	0.09040779986175289	0.44076740962266764	0.3070288749297849	0.09328521323248155	0.40909064258759104	0.2919836070601105	0.08498961223748835	0.33690679852398836	0.3283194187337942
151	2.5166666666666666	0.26560107519381526	0.9549920729234472	0.6190675691303931	0.2483241772229087	0.989243911972793	1.0243653028332287	0.24807393168961434	1.3001517054804672	1.3863641456425981	0.25368238441790575	1.0691870568552178	1.4386754415518268	0.292009560469709	1.1207126089352621	1.4432347598487036	0.24315520494130546	1.398232727254992	1.440716583408257	0.0688094987875171	0.9464926945984383	0.6224250394949037	0.0757119336243536	1.0639147646300984	1.0312924599139126	0.08817793325167081	1.2561056920057556	1.399250128590347	0.10260953753528299	1.0664146251561932	1.4494525865099313	0.04646742021941376	1.1018997571885096	1.4347982515513573	0.10884321929729587	1.3629330171375147	1.4351270492464387	0.15040271071675668	0.656494618372151	0.24804233859393396	0.1662640353927558	0.36119881330519854	0.10117932179448609	0.16272215964810768	0.46430697443058333	0.25055020784583437	0.304805249224483	0.6558203417897831	0.26203256820593573	0.3363407915049338	0.5615153432628639	0.5204526266160532	0.25609134068672956	0.4313485599730806	0.3816941408193856	0.18967238544045495	0.4181249062382516	0.2964426419149272	0.19021871397942378	0.3364473823077087	0.2956593893125929	0.2202032718618555	0.3155729805605371	0.341467655151267	0.03351557420230177	0.7041996922671154	0.255614530329881	-0.0003784606605942014	0.6428923525344009	0.504721383512943	0.07276898121614585	0.48296496374253073	0.37157337429036574	0.08964591735769711	0.437872623124539	0.3039079148977022	0.08639770932277029	0.3947257812290898	0.2916574303200958	0.07870744320902587	0.31605164034663197	0.33103819586138555
